/* XPM */
static char *c958e0b8257c4250fa04474977b2514dtPtdgdymc67Z5pZX[] = {
/* columns rows colors chars-per-pixel */
"64 64 7 1 ",
"  c #F2A65E",
". c #F9D3B0",
"X c white",
"o c #FCE7D4",
"O c #FEF6EE",
"+ c #F4B071",
"@ c #F6BD87",
/* pixels */
"XXXXXXXXXXXXXXXXXXXXXXXXXXXXXXXXXXXXXXXXXXXXXXXXXXXXXXXXXXXXXXXX",
"Xo..............................oO............................oX",
"X.@..@.+@+.....                 .O+                           .X",
"X..oooo@@@o.ooo+                .O+                           .X",
"X.@@@@@+  @@@@@                 .O+                           .X",
"X.                              .O+                           .X",
"X.                              .O+                           .X",
"X.                              .O+                           .X",
"X.                              .O+                           .X",
"X.                              .O+                           .X",
"X.                              .O+                           .X",
"X.                              .O+                           .X",
"X.                              .O+                           .X",
"X.                              .O+                           .X",
"X.                              .O+                           .X",
"X.                              .O+                           .X",
"X.                              .O+                           .X",
"X.                              .O+                           .X",
"X.                              .O+                           .X",
"X.                              .O+                           .X",
"X.                              .O+                           .X",
"X.                              .O+                           .X",
"X.                              .O+                           .X",
"X.                              .O+                           .X",
"X.                              .O+                           .X",
"X.                              .O+                           .X",
"X.                              .O+                           .X",
"X.                              .O+                           .X",
"X.                              .O+                           .X",
"X.                              .O+                           .X",
"XOooooooooooooooooooooooooooooooOXooooooooooooooooooooooooooooOX",
"XOooooooooooooooooooooooooooooooOXooooooooooooooooooooooooooooOX",
"X.                              .O+                           .X",
"X.                              .O+                           .X",
"X.                              .O+                           .X",
"X.                              .O+                           .X",
"X.                              .O+                           .X",
"X.                              .O+                           .X",
"X.                              .O+                           .X",
"X.                              .O+                           .X",
"X.                              .O+                           .X",
"X.                              .O+                           .X",
"X.                              .O+                           .X",
"X.                              .O+                           .X",
"X.                              .O+                           .X",
"X.                              .O+                           .X",
"X.                              .O+                           .X",
"X.                              .O+                           .X",
"X.                              .O+                           .X",
"X.                              .O+                           .X",
"X.                              .O+                           .X",
"X.                              .O+                           .X",
"X.                              .O+                           .X",
"X.                              .O+                           .X",
"X.                              .O+                           .X",
"X.                              .O+                           .X",
"X.                              .O+                           .X",
"X.                              .O+                           .X",
"X.                              .O+                           .X",
"X.                              .O+                           .X",
"X.                              .O+                           .X",
"X.                              .O+                           .X",
"Xo..............................oO............................oX",
"XXXXXXXXXXXXXXXXXXXXXXXXXXXXXXXXXXXXXXXXXXXXXXXXXXXXXXXXXXXXXXXX"
};
